<?xml version="1.0" encoding="utf-8"?>
<!-- Generator: Adobe Illustrator 16.0.3, SVG Export Plug-In . SVG Version: 6.00 Build 0)  -->
<!DOCTYPE svg PUBLIC "-//W3C//DTD SVG 1.1//EN" "http://www.w3.org/Graphics/SVG/1.1/DTD/svg11.dtd">
<svg version="1.1" id="Layer_1" xmlns="http://www.w3.org/2000/svg" xmlns:xlink="http://www.w3.org/1999/xlink" x="0px" y="0px"
	 width="460px" height="200px" viewBox="0 0 460 200" enable-background="new 0 0 460 200" xml:space="preserve">
<g>
	<g>
		<g>
			<path fill="#EEC255" stroke="#3A3333" stroke-width="10.5" stroke-miterlimit="10" d="M145.151,45.972
				c4.794-6.246,4.794-10.389,4.794-14.256l0,0c0-9.339-7.569-16.909-16.907-16.909H49.762c-9.338,0-16.909,7.569-16.909,16.909l0,0
				c0,3.868,0,8.011,4.795,14.256"/>
			<path fill="#EEC255" stroke="#3A3333" stroke-width="10.5" stroke-miterlimit="10" d="M23.454,81.744
				c-9.652-8.896-8.44-13.922-8.44-17.792l0,0c0-9.336,7.495-16.906,22.089-16.906H145.9c14.595,0,22.089,7.569,22.089,16.906l0,0
				c0,3.87,1.211,8.896-8.441,17.792"/>
			<path fill="#EEC255" stroke="#3A3333" stroke-width="10.5" stroke-miterlimit="10" d="M145.151,153.35
				c4.794,6.244,4.794,10.389,4.794,14.256l0,0c0,9.338-7.569,16.906-16.907,16.906H49.762c-9.338,0-16.909-7.568-16.909-16.906l0,0
				c0-3.867,0-8.012,4.795-14.256"/>
			<path fill="#EEC255" stroke="#3A3333" stroke-width="10.5" stroke-miterlimit="10" d="M160.646,120.164
				c15.858-9.014,14.599-16.898,14.531-22.407l0,0c0-9.261-8.329-16.772-24.277-16.772H31.313c-15.949,0-24.279,7.511-24.279,16.772
				l0,0c-0.068,5.509-1.326,13.394,14.533,22.407"/>
			<path fill="#EEC255" stroke="#3A3333" stroke-width="10.5" stroke-miterlimit="10" d="M146.351,116.758h-0.521
				c14.689,0,22.232,7.568,22.232,16.908l0,0c0,9.209-1.847,22.457-27.179,19.93H41.799c-25.336,2.527-27.18-10.721-27.18-19.93l0,0
				c0-9.34,7.542-16.908,22.231-16.908H146.351z"/>
		</g>
		<path fill="#3A3333" d="M111.437,185.193H71.143v-34.482c0,0,4.712-16.111,20.146-16.111c15.436,0,20.147,16.111,20.147,16.111
			V185.193z"/>
		<g>
			<path fill="#EAA535" d="M149.945,122.264c0,0,10.306,10.09,0.898,26.074c0,0,11.302,0.598,12.096-12.262
				C163.732,123.189,149.945,122.264,149.945,122.264z"/>
			<path fill="#EAA535" d="M159.492,87.135c0,0,8.764,10.512,0.762,27.17c0,0,9.911-4.904,10.288-12.777
				C171.142,89.011,159.492,87.135,159.492,87.135z"/>
			<path fill="#EAA535" d="M150.805,75.766c0,0,3.275-0.102,6.811,0.373c0,0,5.923-4.201,5.177-11.745
				c-0.746-7.545-4.736-10.614-12.847-11.841C149.945,52.553,159.625,61.431,150.805,75.766z"/>
			<path fill="#EAA535" d="M132.626,20.015c0,0,10.357,0.215,11.974,9.452c0,0,0.969,7.583-2.367,12.293h-8.783
				C133.45,41.76,142.133,29.302,132.626,20.015z"/>
			<path fill="#EAA535" d="M133.009,179.137c0,0,8.523,0.867,11.382-8.826c0,0,1.384-6.666-1.884-11.477h-8.713
				C133.793,158.834,142.047,170.465,133.009,179.137z"/>
		</g>
		<g>
			
				<line fill="none" stroke="#FFFFFF" stroke-width="4" stroke-linecap="round" stroke-miterlimit="10" x1="106.73" y1="23.146" x2="119.979" y2="23.146"/>
			<path fill="none" stroke="#FFFFFF" stroke-width="4" stroke-linecap="round" stroke-miterlimit="10" d="M125.405,23.146h5.783
				c6.066,0.496,10.082,3.746,8.183,12.497"/>
			
				<line fill="none" stroke="#FFFFFF" stroke-width="4" stroke-linecap="round" stroke-miterlimit="10" x1="38.154" y1="57.456" x2="45.976" y2="57.456"/>
			<path fill="none" stroke="#FFFFFF" stroke-width="4" stroke-linecap="round" stroke-miterlimit="10" d="M24.688,66.445
				c0-5.908,2.932-8.989,7.324-8.989"/>
			
				<line fill="none" stroke="#FFFFFF" stroke-width="4" stroke-linecap="round" stroke-miterlimit="10" x1="24.688" y1="90.048" x2="64.559" y2="90.048"/>
			
				<line fill="none" stroke="#FFFFFF" stroke-width="4" stroke-linecap="round" stroke-miterlimit="10" x1="125.159" y1="125.209" x2="149.069" y2="125.209"/>
			
				<line fill="none" stroke="#FFFFFF" stroke-width="4" stroke-linecap="round" stroke-miterlimit="10" x1="103.12" y1="125.209" x2="119.756" y2="125.209"/>
		</g>
	</g>
	<g>
		<polygon fill="#3A3333" points="458.35,119.852 458.35,111.672 407.063,111.672 407.063,182.043 458.35,182.043 458.35,173.863 
			415.242,173.863 415.242,149.965 452.467,149.965 452.467,141.785 415.242,141.785 415.242,119.852 		"/>
		<polyline fill="#3A3333" points="389.836,111.73 368.826,168.316 347.875,111.73 347.875,111.725 339.367,111.725 
			365.518,182.213 372.133,182.213 372.133,182.217 398.285,111.73 389.775,111.73 		"/>
		<rect x="322.25" y="111.672" fill="#3A3333" width="8.178" height="70.502"/>
		<path fill="#3A3333" d="M300.422,109.83v44.133c-1.393-2.291-2.941-4.475-4.637-6.514c-6.256-7.521-17.115-16.385-34.082-17.631
			V109.83h-8.178v72.344h8.178v-44.146c26.385,2.332,38.719,27.051,38.719,44.021h8.18V109.83H300.422z"/>
		<polygon fill="#3A3333" points="458.35,27.955 458.35,19.777 407.063,19.777 407.063,90.146 458.35,90.146 458.35,81.968 
			415.242,81.968 415.242,58.067 452.467,58.067 452.467,49.89 415.242,49.89 415.242,27.955 		"/>
		<polygon fill="#3A3333" points="347.428,37.708 364.998,68.996 370.961,68.996 388.207,38.282 388.207,90.189 396.34,90.189 
			396.34,19.797 389.205,19.797 367.988,57.713 346.746,19.797 339.25,19.797 339.25,90.189 347.428,90.189 		"/>
		<path fill="#3A3333" d="M301.291,90.69c-15.248,0-29.135-12.719-29.135-26.684V46.446c0-12.086,12.996-26.684,29.135-26.684
			c16.678,0,29.137,14.088,29.137,26.684v17.561C330.428,76.603,317.969,90.69,301.291,90.69z M301.291,27.941
			c-11.957,0-20.957,11.225-20.957,18.505v17.561c0,8.557,9.154,18.505,20.957,18.505c11.609,0,20.959-10.124,20.959-18.505V46.446
			C322.25,37.889,313.094,27.941,301.291,27.941z"/>
		<path fill="#3A3333" d="M261.707,90.048v-72.22h-8.178v44.134c-1.393-2.29-2.941-4.475-4.637-6.513
			c-6.256-7.523-17.115-16.386-34.083-17.63V17.828h-8.179v72.343h8.179V46.026c26.385,2.33,38.719,27.05,38.719,44.022H261.707z"/>
	</g>
</g>
<g>
</g>
<g>
</g>
<g>
</g>
<g>
</g>
<g>
</g>
<g>
</g>
</svg>
